{
  "accessors": [
    {
      "bufferView": 2,
      "componentType": 5126,
      "count": 3481,
      "max": [
        0.9872310161590576,
        0.9872311353683472,
        0.9596238732337952
      ],
      "min": [
        -0.9872305393218994,
        -0.9872307181358337,
        -0.9975767135620117
      ],
      "type": "VEC3"
    },
    {
      "bufferView": 2,
      "byteOffset": 41772,
      "componentType": 5126,
      "count": 3481,
      "max": [
        1.0,
        1.0,
        1.0
      ],
      "min": [
        -1.0,
        -1.0,
        -1.0
      ],
      "type": "VEC3"
    },
    {
      "bufferView": 3,
      "componentType": 5126,
      "count": 3481,
      "max": [
        1.0,
        1.0,
        0.5611848831176758,
        1.0
      ],
      "min": [
        -1.0,
        -1.0,
        -0.561184287071228,
        -1.0
      ],
      "type": "VEC4"
    },
    {
      "bufferView": 1,
      "componentType": 5126,
      "count": 3481,
      "max": [
        1.0000001192092896,
        0.9519842863082886
      ],
      "min": [
        0.0,
        0.004404031205922365
      ],
      "type": "VEC2"
    },
    {
      "bufferView": 0,
      "componentType": 5125,
      "count": 15744,
      "type": "SCALAR"
    },
    {
      "bufferView": 2,
      "byteOffset": 83544,
      "componentType": 5126,
      "count": 3128,
      "max": [
        0.9872310161590576,
        0.9872310161590576,
        1.0158188343048096
      ],
      "min": [
        -0.9872305393218994,
        -0.9872307181358337,
        -0.9975767135620117
      ],
      "type": "VEC3"
    },
    {
      "bufferView": 2,
      "byteOffset": 121080,
      "componentType": 5126,
      "count": 3128,
      "max": [
        1.0,
        1.0,
        1.0
      ],
      "min": [
        -1.0,
        -1.0,
        -1.0
      ],
      "type": "VEC3"
    },
    {
      "bufferView": 1,
      "byteOffset": 27848,
      "componentType": 5126,
      "count": 3128,
      "max": [
        1.0000001192092896,
        1.0000001192092896
      ],
      "min": [
        0.0,
        0.0
      ],
      "type": "VEC2"
    },
    {
      "bufferView": 0,
      "byteOffset": 62976,
      "componentType": 5125,
      "count": 15744,
      "type": "SCALAR"
    }
  ],
  "asset": {
    "extras": {
      "author": "tejincross (https://sketchfab.com/tejincross)",
      "license": "CC-BY-4.0 (http://creativecommons.org/licenses/by/4.0/)",
      "source": "https://sketchfab.com/3d-models/eye-b7dfe95005544af5a3fba6f6edfbae7b",
      "title": "EYE"
    },
    "generator": "Sketchfab-14.70.0",
    "version": "2.0"
  },
  "bufferViews": [
    {
      "buffer": 0,
      "byteLength": 125952,
      "name": "floatBufferViews",
      "target": 34963
    },
    {
      "buffer": 0,
      "byteLength": 52872,
      "byteOffset": 125952,
      "byteStride": 8,
      "name": "floatBufferViews",
      "target": 34962
    },
    {
      "buffer": 0,
      "byteLength": 158616,
      "byteOffset": 178824,
      "byteStride": 12,
      "name": "floatBufferViews",
      "target": 34962
    },
    {
      "buffer": 0,
      "byteLength": 55696,
      "byteOffset": 337440,
      "byteStride": 16,
      "name": "floatBufferViews",
      "target": 34962
    }
  ],
  "buffers": [
    {
      "byteLength": 393136,
      "uri": "scene.bin"
    }
  ],
  "extensionsUsed": [
    "KHR_materials_specular"
  ],
  "images": [
    {
      "uri": "textures/Material.001_baseColor.jpeg"
    },
    {
      "uri": "textures/Material.001_normal.png"
    }
  ],
  "materials": [
    {
      "doubleSided": true,
      "name": "Material.001",
      "normalTexture": {
        "index": 1
      },
      "pbrMetallicRoughness": {
        "baseColorTexture": {
          "index": 0
        },
        "metallicFactor": 0.0,
        "roughnessFactor": 0.16914337262742132
      }
    },
    {
      "alphaMode": "BLEND",
      "doubleSided": true,
      "extensions": {
        "KHR_materials_specular": {
          "specularColorFactor": [
            1.0,
            1.0,
            1.0
          ],
          "specularFactor": 1.0
        }
      },
      "name": "Material.002",
      "pbrMetallicRoughness": {
        "baseColorFactor": [
          0.8,
          0.8,
          0.8,
          0.3702868427789494
        ],
        "roughnessFactor": 0.05066377345150008
      }
    }
  ],
  "meshes": [
    {
      "name": "Eye_Material.001_0",
      "primitives": [
        {
          "attributes": {
            "NORMAL": 1,
            "POSITION": 0,
            "TANGENT": 2,
            "TEXCOORD_0": 3
          },
          "indices": 4,
          "material": 0,
          "mode": 4
        }
      ]
    },
    {
      "name": "EyeGlass_Material.002_0",
      "primitives": [
        {
          "attributes": {
            "NORMAL": 6,
            "POSITION": 5,
            "TEXCOORD_0": 7
          },
          "indices": 8,
          "material": 1,
          "mode": 4
        }
      ]
    }
  ],
  "nodes": [
    {
      "children": [
        1
      ],
      "matrix": [
        1.0,
        0.0,
        0.0,
        0.0,
        0.0,
        1.0,
        4.440892098500626e-16,
        0.0,
        0.0,
        -4.440892098500626e-16,
        1.0,
        0.0,
        0.0,
        0.0,
        0.0,
        1.0
      ],
      "name": "Sketchfab_model"
    },
    {
      "children": [
        2
      ],
      "matrix": [
        0.009999999776482582,
        0.0,
        0.0,
        0.0,
        0.0,
        0.0,
        0.009999999776482582,
        0.0,
        0.0,
        -0.009999999776482582,
        0.0,
        0.0,
        0.0,
        0.0,
        0.0,
        1.0
      ],
      "name": "5dbfdc31b2624a048f18566dfe0d648d.fbx"
    },
    {
      "children": [
        3,
        5
      ],
      "name": "RootNode"
    },
    {
      "children": [
        4
      ],
      "matrix": [
        100.0,
        0.0,
        0.0,
        0.0,
        0.0,
        -1.629206793918314e-05,
        -99.99999999999868,
        0.0,
        0.0,
        99.99999999999868,
        -1.629206793918314e-05,
        0.0,
        0.0,
        0.0,
        0.0,
        1.0
      ],
      "name": "Eye"
    },
    {
      "mesh": 0,
      "name": "Eye_Material.001_0"
    },
    {
      "children": [
        6
      ],
      "matrix": [
        101.29434204101563,
        0.0,
        0.0,
        0.0,
        0.0,
        -1.6502943023870817e-05,
        -101.29434204101429,
        0.0,
        0.0,
        101.29434204101429,
        -1.6502943023870817e-05,
        0.0,
        0.0,
        0.0,
        0.0,
        1.0
      ],
      "name": "EyeGlass"
    },
    {
      "mesh": 1,
      "name": "EyeGlass_Material.002_0"
    }
  ],
  "samplers": [
    {
      "magFilter": 9729,
      "minFilter": 9987,
      "wrapS": 10497,
      "wrapT": 10497
    }
  ],
  "scene": 0,
  "scenes": [
    {
      "name": "Sketchfab_Scene",
      "nodes": [
        0
      ]
    }
  ],
  "textures": [
    {
      "sampler": 0,
      "source": 0
    },
    {
      "sampler": 0,
      "source": 1
    }
  ]
}
